<svg xmlns="http://www.w3.org/2000/svg" version="1.1" xmlns:xlink="http://www.w3.org/1999/xlink" xmlns:svgjs="http://svgjs.com/svgjs" width="1440" height="560" preserveAspectRatio="none" viewBox="0 0 1440 560"><g mask="url(&quot;#SvgjsMask1000&quot;)" fill="none"><rect width="1440" height="560" x="0" y="0" fill="#0e2a47"></rect><path d="M882.126419281683 152.67147658910994L822.8344203560926 86.82104055311014 816.2759832456832 211.9634755147004z" fill="rgba(28, 83, 142, 0.4)" class="triangle-float1"></path><path d="M732.5084049806975 461.0636048392757L601.551947009975 456.49050455702434 596.9788467277237 587.4469625277468 727.9353046984462 592.0200628099982z" fill="rgba(28, 83, 142, 0.4)" class="triangle-float1"></path><path d="M51.17,396.128C80.071,395.301,101.405,372.941,116.392,348.216C132.13,322.252,145.548,291.12,130.961,264.493C115.982,237.15,82.246,226.648,51.17,229.159C24.05,231.35,4.721,252.327,-9.028,275.805C-22.974,299.62,-33.199,327.461,-20.851,352.142C-7.361,379.106,21.032,396.99,51.17,396.128" fill="rgba(28, 83, 142, 0.4)" class="triangle-float3"></path><path d="M875.772,283.071C901.037,284.661,927.678,276.484,940.747,254.803C954.164,232.544,949.215,204.893,936.589,182.176C923.532,158.684,902.626,138.997,875.772,137.897C847.148,136.724,817.988,150.95,805.662,176.811C794.464,200.307,809.233,225.704,823.567,247.429C836.004,266.279,853.234,281.653,875.772,283.071" fill="rgba(28, 83, 142, 0.4)" class="triangle-float2"></path><path d="M1403.173,303.41C1435.66,302.85,1466.254,289.897,1484.731,263.17C1506.425,231.789,1520.387,192.355,1503.646,158.074C1485.144,120.187,1445.322,95.063,1403.173,96.163C1362.604,97.222,1329.816,126.933,1311.391,163.092C1294.667,195.913,1296.433,235.24,1316.597,266.067C1335.036,294.257,1369.493,303.99,1403.173,303.41" fill="rgba(28, 83, 142, 0.4)" class="triangle-float3"></path><path d="M1250.793,235.692C1267.898,235.38,1284.869,229.275,1293.836,214.706C1303.222,199.456,1304.344,179.584,1294.557,164.588C1285.47,150.664,1267.42,148.746,1250.793,148.753C1234.183,148.76,1216.42,150.881,1207.094,164.625C1196.713,179.923,1195.255,200.58,1204.939,216.329C1214.254,231.477,1233.013,236.017,1250.793,235.692" fill="rgba(28, 83, 142, 0.4)" class="triangle-float3"></path></g><defs><mask id="SvgjsMask1000"><rect width="1440" height="560" fill="#ffffff"></rect></mask><style>
            @keyframes float1 {
                0%{transform: translate(0, 0)}
                50%{transform: translate(-10px, 0)}
                100%{transform: translate(0, 0)}
            }

            .triangle-float1 {
                animation: float1 5s infinite;
            }

            @keyframes float2 {
                0%{transform: translate(0, 0)}
                50%{transform: translate(-5px, -5px)}
                100%{transform: translate(0, 0)}
            }

            .triangle-float2 {
                animation: float2 4s infinite;
            }

            @keyframes float3 {
                0%{transform: translate(0, 0)}
                50%{transform: translate(0, -10px)}
                100%{transform: translate(0, 0)}
            }

            .triangle-float3 {
                animation: float3 6s infinite;
            }
        </style></defs></svg>