<svg xmlns="http://www.w3.org/2000/svg" version="1.1" xmlns:xlink="http://www.w3.org/1999/xlink" xmlns:svgjs="http://svgjs.com/svgjs" width="1440" height="560" preserveAspectRatio="none" viewBox="0 0 1440 560"><g mask="url(&quot;#SvgjsMask1217&quot;)" fill="none"><rect width="1440" height="560" x="0" y="0" fill="#0e2a47"></rect><path d="M78.99 490.51L143.95 528.01L143.95 603.01L78.99 640.51L14.04 603.01L14.04 528.01zM208.9 40.51L273.86 78.01L273.86 153.01L208.9 190.51L143.95 153.01L143.95 78.01zM208.9 265.51L273.86 303.01L273.86 378.01L208.9 415.51L143.95 378.01L143.95 303.01zM273.86 153.01L338.81 190.51L338.81 265.51L273.86 303.01L208.9 265.51L208.9 190.51zM338.81 265.51L403.76 303.01L403.76 378.01L338.81 415.51L273.86 378.01L273.86 303.01zM468.72 265.51L533.67 303.01L533.67 378.01L468.72 415.51L403.76 378.01L403.76 303.01zM468.72 490.51L533.67 528.01L533.67 603.01L468.72 640.51L403.76 603.01L403.76 528.01zM598.62 40.51L663.58 78.01L663.58 153.01L598.62 190.51L533.67 153.01L533.67 78.01zM533.67 153.01L598.62 190.51L598.62 265.51L533.67 303.01L468.72 265.51L468.72 190.51zM728.53 265.51L793.49 303.01L793.49 378.01L728.53 415.51L663.58 378.01L663.58 303.01zM663.58 378.01L728.53 415.51L728.53 490.51L663.58 528.01L598.62 490.51L598.62 415.51zM728.53 490.51L793.49 528.01L793.49 603.01L728.53 640.51L663.58 603.01L663.58 528.01zM858.44 40.51L923.39 78.01L923.39 153.01L858.44 190.51L793.48 153.01L793.48 78.01zM858.44 265.51L923.39 303.01L923.39 378.01L858.44 415.51L793.48 378.01L793.48 303.01zM858.44 490.51L923.39 528.01L923.39 603.01L858.44 640.51L793.48 603.01L793.48 528.01zM923.39 -71.99L988.35 -34.49L988.35 40.51L923.39 78.01L858.44 40.51L858.44 -34.49zM923.39 378.01L988.35 415.51L988.35 490.51L923.39 528.01L858.44 490.51L858.44 415.51zM988.35 490.51L1053.3 528.01L1053.3 603.01L988.35 640.51L923.39 603.01L923.39 528.01zM1118.25 490.51L1183.21 528.01L1183.21 603.01L1118.25 640.51L1053.3 603.01L1053.3 528.01zM1248.16 265.51L1313.11 303.01L1313.11 378.01L1248.16 415.51L1183.21 378.01L1183.21 303.01zM1183.21 378.01L1248.16 415.51L1248.16 490.51L1183.21 528.01L1118.25 490.51L1118.25 415.51zM1248.16 490.51L1313.11 528.01L1313.11 603.01L1248.16 640.51L1183.21 603.01L1183.21 528.01zM1313.12 153.01L1378.07 190.51L1378.07 265.51L1313.12 303.01L1248.16 265.51L1248.16 190.51zM1378.07 490.51L1443.02 528.01L1443.02 603.01L1378.07 640.51L1313.12 603.01L1313.12 528.01zM1443.02 -71.99L1507.98 -34.49L1507.98 40.51L1443.02 78.01L1378.07 40.51L1378.07 -34.49zM1443.02 153.01L1507.98 190.51L1507.98 265.51L1443.02 303.01L1378.07 265.51L1378.07 190.51z" stroke="#03305d" stroke-width="2"></path><path d="M71.49 490.51 a7.5 7.5 0 1 0 15 0 a7.5 7.5 0 1 0 -15 0zM136.45 528.01 a7.5 7.5 0 1 0 15 0 a7.5 7.5 0 1 0 -15 0zM136.45 603.01 a7.5 7.5 0 1 0 15 0 a7.5 7.5 0 1 0 -15 0zM71.49 640.51 a7.5 7.5 0 1 0 15 0 a7.5 7.5 0 1 0 -15 0zM6.54 603.01 a7.5 7.5 0 1 0 15 0 a7.5 7.5 0 1 0 -15 0zM6.54 528.01 a7.5 7.5 0 1 0 15 0 a7.5 7.5 0 1 0 -15 0zM201.4 40.51 a7.5 7.5 0 1 0 15 0 a7.5 7.5 0 1 0 -15 0zM266.36 78.01 a7.5 7.5 0 1 0 15 0 a7.5 7.5 0 1 0 -15 0zM266.36 153.01 a7.5 7.5 0 1 0 15 0 a7.5 7.5 0 1 0 -15 0zM201.4 190.51 a7.5 7.5 0 1 0 15 0 a7.5 7.5 0 1 0 -15 0zM136.45 153.01 a7.5 7.5 0 1 0 15 0 a7.5 7.5 0 1 0 -15 0zM136.45 78.01 a7.5 7.5 0 1 0 15 0 a7.5 7.5 0 1 0 -15 0zM201.4 265.51 a7.5 7.5 0 1 0 15 0 a7.5 7.5 0 1 0 -15 0zM266.36 303.01 a7.5 7.5 0 1 0 15 0 a7.5 7.5 0 1 0 -15 0zM266.36 378.01 a7.5 7.5 0 1 0 15 0 a7.5 7.5 0 1 0 -15 0zM201.4 415.51 a7.5 7.5 0 1 0 15 0 a7.5 7.5 0 1 0 -15 0zM136.45 378.01 a7.5 7.5 0 1 0 15 0 a7.5 7.5 0 1 0 -15 0zM136.45 303.01 a7.5 7.5 0 1 0 15 0 a7.5 7.5 0 1 0 -15 0zM331.31 190.51 a7.5 7.5 0 1 0 15 0 a7.5 7.5 0 1 0 -15 0zM331.31 265.51 a7.5 7.5 0 1 0 15 0 a7.5 7.5 0 1 0 -15 0zM396.26 303.01 a7.5 7.5 0 1 0 15 0 a7.5 7.5 0 1 0 -15 0zM396.26 378.01 a7.5 7.5 0 1 0 15 0 a7.5 7.5 0 1 0 -15 0zM331.31 415.51 a7.5 7.5 0 1 0 15 0 a7.5 7.5 0 1 0 -15 0zM461.22 265.51 a7.5 7.5 0 1 0 15 0 a7.5 7.5 0 1 0 -15 0zM526.17 303.01 a7.5 7.5 0 1 0 15 0 a7.5 7.5 0 1 0 -15 0zM526.17 378.01 a7.5 7.5 0 1 0 15 0 a7.5 7.5 0 1 0 -15 0zM461.22 415.51 a7.5 7.5 0 1 0 15 0 a7.5 7.5 0 1 0 -15 0zM461.22 490.51 a7.5 7.5 0 1 0 15 0 a7.5 7.5 0 1 0 -15 0zM526.17 528.01 a7.5 7.5 0 1 0 15 0 a7.5 7.5 0 1 0 -15 0zM526.17 603.01 a7.5 7.5 0 1 0 15 0 a7.5 7.5 0 1 0 -15 0zM461.22 640.51 a7.5 7.5 0 1 0 15 0 a7.5 7.5 0 1 0 -15 0zM396.26 603.01 a7.5 7.5 0 1 0 15 0 a7.5 7.5 0 1 0 -15 0zM396.26 528.01 a7.5 7.5 0 1 0 15 0 a7.5 7.5 0 1 0 -15 0zM591.12 40.51 a7.5 7.5 0 1 0 15 0 a7.5 7.5 0 1 0 -15 0zM656.08 78.01 a7.5 7.5 0 1 0 15 0 a7.5 7.5 0 1 0 -15 0zM656.08 153.01 a7.5 7.5 0 1 0 15 0 a7.5 7.5 0 1 0 -15 0zM591.12 190.51 a7.5 7.5 0 1 0 15 0 a7.5 7.5 0 1 0 -15 0zM526.17 153.01 a7.5 7.5 0 1 0 15 0 a7.5 7.5 0 1 0 -15 0zM526.17 78.01 a7.5 7.5 0 1 0 15 0 a7.5 7.5 0 1 0 -15 0zM591.12 265.51 a7.5 7.5 0 1 0 15 0 a7.5 7.5 0 1 0 -15 0zM461.22 190.51 a7.5 7.5 0 1 0 15 0 a7.5 7.5 0 1 0 -15 0zM721.03 265.51 a7.5 7.5 0 1 0 15 0 a7.5 7.5 0 1 0 -15 0zM785.99 303.01 a7.5 7.5 0 1 0 15 0 a7.5 7.5 0 1 0 -15 0zM785.99 378.01 a7.5 7.5 0 1 0 15 0 a7.5 7.5 0 1 0 -15 0zM721.03 415.51 a7.5 7.5 0 1 0 15 0 a7.5 7.5 0 1 0 -15 0zM656.08 378.01 a7.5 7.5 0 1 0 15 0 a7.5 7.5 0 1 0 -15 0zM656.08 303.01 a7.5 7.5 0 1 0 15 0 a7.5 7.5 0 1 0 -15 0zM721.03 490.51 a7.5 7.5 0 1 0 15 0 a7.5 7.5 0 1 0 -15 0zM656.08 528.01 a7.5 7.5 0 1 0 15 0 a7.5 7.5 0 1 0 -15 0zM591.12 490.51 a7.5 7.5 0 1 0 15 0 a7.5 7.5 0 1 0 -15 0zM591.12 415.51 a7.5 7.5 0 1 0 15 0 a7.5 7.5 0 1 0 -15 0zM785.99 528.01 a7.5 7.5 0 1 0 15 0 a7.5 7.5 0 1 0 -15 0zM785.99 603.01 a7.5 7.5 0 1 0 15 0 a7.5 7.5 0 1 0 -15 0zM721.03 640.51 a7.5 7.5 0 1 0 15 0 a7.5 7.5 0 1 0 -15 0zM656.08 603.01 a7.5 7.5 0 1 0 15 0 a7.5 7.5 0 1 0 -15 0zM850.94 40.51 a7.5 7.5 0 1 0 15 0 a7.5 7.5 0 1 0 -15 0zM915.89 78.01 a7.5 7.5 0 1 0 15 0 a7.5 7.5 0 1 0 -15 0zM915.89 153.01 a7.5 7.5 0 1 0 15 0 a7.5 7.5 0 1 0 -15 0zM850.94 190.51 a7.5 7.5 0 1 0 15 0 a7.5 7.5 0 1 0 -15 0zM785.98 153.01 a7.5 7.5 0 1 0 15 0 a7.5 7.5 0 1 0 -15 0zM785.98 78.01 a7.5 7.5 0 1 0 15 0 a7.5 7.5 0 1 0 -15 0zM850.94 265.51 a7.5 7.5 0 1 0 15 0 a7.5 7.5 0 1 0 -15 0zM915.89 303.01 a7.5 7.5 0 1 0 15 0 a7.5 7.5 0 1 0 -15 0zM915.89 378.01 a7.5 7.5 0 1 0 15 0 a7.5 7.5 0 1 0 -15 0zM850.94 415.51 a7.5 7.5 0 1 0 15 0 a7.5 7.5 0 1 0 -15 0zM785.98 378.01 a7.5 7.5 0 1 0 15 0 a7.5 7.5 0 1 0 -15 0zM785.98 303.01 a7.5 7.5 0 1 0 15 0 a7.5 7.5 0 1 0 -15 0zM850.94 490.51 a7.5 7.5 0 1 0 15 0 a7.5 7.5 0 1 0 -15 0zM915.89 528.01 a7.5 7.5 0 1 0 15 0 a7.5 7.5 0 1 0 -15 0zM915.89 603.01 a7.5 7.5 0 1 0 15 0 a7.5 7.5 0 1 0 -15 0zM850.94 640.51 a7.5 7.5 0 1 0 15 0 a7.5 7.5 0 1 0 -15 0zM785.98 603.01 a7.5 7.5 0 1 0 15 0 a7.5 7.5 0 1 0 -15 0zM785.98 528.01 a7.5 7.5 0 1 0 15 0 a7.5 7.5 0 1 0 -15 0zM915.89 -71.99 a7.5 7.5 0 1 0 15 0 a7.5 7.5 0 1 0 -15 0zM980.85 -34.49 a7.5 7.5 0 1 0 15 0 a7.5 7.5 0 1 0 -15 0zM980.85 40.51 a7.5 7.5 0 1 0 15 0 a7.5 7.5 0 1 0 -15 0zM850.94 -34.49 a7.5 7.5 0 1 0 15 0 a7.5 7.5 0 1 0 -15 0zM980.85 415.51 a7.5 7.5 0 1 0 15 0 a7.5 7.5 0 1 0 -15 0zM980.85 490.51 a7.5 7.5 0 1 0 15 0 a7.5 7.5 0 1 0 -15 0zM1045.8 528.01 a7.5 7.5 0 1 0 15 0 a7.5 7.5 0 1 0 -15 0zM1045.8 603.01 a7.5 7.5 0 1 0 15 0 a7.5 7.5 0 1 0 -15 0zM980.85 640.51 a7.5 7.5 0 1 0 15 0 a7.5 7.5 0 1 0 -15 0zM1110.75 490.51 a7.5 7.5 0 1 0 15 0 a7.5 7.5 0 1 0 -15 0zM1175.71 528.01 a7.5 7.5 0 1 0 15 0 a7.5 7.5 0 1 0 -15 0zM1175.71 603.01 a7.5 7.5 0 1 0 15 0 a7.5 7.5 0 1 0 -15 0zM1110.75 640.51 a7.5 7.5 0 1 0 15 0 a7.5 7.5 0 1 0 -15 0zM1240.66 265.51 a7.5 7.5 0 1 0 15 0 a7.5 7.5 0 1 0 -15 0zM1305.61 303.01 a7.5 7.5 0 1 0 15 0 a7.5 7.5 0 1 0 -15 0zM1305.61 378.01 a7.5 7.5 0 1 0 15 0 a7.5 7.5 0 1 0 -15 0zM1240.66 415.51 a7.5 7.5 0 1 0 15 0 a7.5 7.5 0 1 0 -15 0zM1175.71 378.01 a7.5 7.5 0 1 0 15 0 a7.5 7.5 0 1 0 -15 0zM1175.71 303.01 a7.5 7.5 0 1 0 15 0 a7.5 7.5 0 1 0 -15 0zM1240.66 490.51 a7.5 7.5 0 1 0 15 0 a7.5 7.5 0 1 0 -15 0zM1110.75 415.51 a7.5 7.5 0 1 0 15 0 a7.5 7.5 0 1 0 -15 0zM1305.61 528.01 a7.5 7.5 0 1 0 15 0 a7.5 7.5 0 1 0 -15 0zM1305.61 603.01 a7.5 7.5 0 1 0 15 0 a7.5 7.5 0 1 0 -15 0zM1240.66 640.51 a7.5 7.5 0 1 0 15 0 a7.5 7.5 0 1 0 -15 0zM1305.62 153.01 a7.5 7.5 0 1 0 15 0 a7.5 7.5 0 1 0 -15 0zM1370.57 190.51 a7.5 7.5 0 1 0 15 0 a7.5 7.5 0 1 0 -15 0zM1370.57 265.51 a7.5 7.5 0 1 0 15 0 a7.5 7.5 0 1 0 -15 0zM1305.62 303.01 a7.5 7.5 0 1 0 15 0 a7.5 7.5 0 1 0 -15 0zM1240.66 190.51 a7.5 7.5 0 1 0 15 0 a7.5 7.5 0 1 0 -15 0zM1370.57 490.51 a7.5 7.5 0 1 0 15 0 a7.5 7.5 0 1 0 -15 0zM1435.52 528.01 a7.5 7.5 0 1 0 15 0 a7.5 7.5 0 1 0 -15 0zM1435.52 603.01 a7.5 7.5 0 1 0 15 0 a7.5 7.5 0 1 0 -15 0zM1370.57 640.51 a7.5 7.5 0 1 0 15 0 a7.5 7.5 0 1 0 -15 0zM1305.62 603.01 a7.5 7.5 0 1 0 15 0 a7.5 7.5 0 1 0 -15 0zM1305.62 528.01 a7.5 7.5 0 1 0 15 0 a7.5 7.5 0 1 0 -15 0zM1435.52 -71.99 a7.5 7.5 0 1 0 15 0 a7.5 7.5 0 1 0 -15 0zM1500.48 -34.49 a7.5 7.5 0 1 0 15 0 a7.5 7.5 0 1 0 -15 0zM1500.48 40.51 a7.5 7.5 0 1 0 15 0 a7.5 7.5 0 1 0 -15 0zM1435.52 78.01 a7.5 7.5 0 1 0 15 0 a7.5 7.5 0 1 0 -15 0zM1370.57 40.51 a7.5 7.5 0 1 0 15 0 a7.5 7.5 0 1 0 -15 0zM1370.57 -34.49 a7.5 7.5 0 1 0 15 0 a7.5 7.5 0 1 0 -15 0zM1435.52 153.01 a7.5 7.5 0 1 0 15 0 a7.5 7.5 0 1 0 -15 0zM1500.48 190.51 a7.5 7.5 0 1 0 15 0 a7.5 7.5 0 1 0 -15 0zM1500.48 265.51 a7.5 7.5 0 1 0 15 0 a7.5 7.5 0 1 0 -15 0zM1435.52 303.01 a7.5 7.5 0 1 0 15 0 a7.5 7.5 0 1 0 -15 0z" fill="#03305d"></path><path d="M76.36 28.37L119.67 53.37L119.67 103.37L76.36 128.37L33.06 103.37L33.06 53.37zM76.36 328.37L119.67 353.37L119.67 403.37L76.36 428.37L33.06 403.37L33.06 353.37zM119.67 -46.63L162.97 -21.63L162.97 28.37L119.67 53.37L76.36 28.37L76.36 -21.63zM119.67 253.37L162.97 278.37L162.97 328.37L119.67 353.37L76.36 328.37L76.36 278.37zM206.27 -46.63L249.57 -21.63L249.57 28.37L206.27 53.37L162.97 28.37L162.97 -21.63zM249.57 28.37L292.88 53.37L292.88 103.37L249.57 128.37L206.27 103.37L206.27 53.37zM206.27 103.37L249.57 128.37L249.57 178.37L206.27 203.37L162.97 178.37L162.97 128.37zM292.88 -46.63L336.18 -21.63L336.18 28.37L292.88 53.37L249.57 28.37L249.57 -21.63zM509.39 178.37L552.69 203.37L552.69 253.37L509.39 278.37L466.09 253.37L466.09 203.37zM466.09 253.37L509.39 278.37L509.39 328.37L466.09 353.37L422.78 328.37L422.78 278.37zM552.69 -46.63L595.99 -21.63L595.99 28.37L552.69 53.37L509.39 28.37L509.39 -21.63zM552.69 103.37L595.99 128.37L595.99 178.37L552.69 203.37L509.39 178.37L509.39 128.37zM639.3 403.37L682.6 428.37L682.6 478.37L639.3 503.37L595.99 478.37L595.99 428.37zM725.9 403.37L769.2 428.37L769.2 478.37L725.9 503.37L682.6 478.37L682.6 428.37zM812.51 103.37L855.81 128.37L855.81 178.37L812.51 203.37L769.2 178.37L769.2 128.37zM855.81 178.37L899.11 203.37L899.11 253.37L855.81 278.37L812.51 253.37L812.51 203.37zM812.51 403.37L855.81 428.37L855.81 478.37L812.51 503.37L769.2 478.37L769.2 428.37zM855.81 478.37L899.11 503.37L899.11 553.37L855.81 578.37L812.51 553.37L812.51 503.37zM899.11 403.37L942.41 428.37L942.41 478.37L899.11 503.37L855.81 478.37L855.81 428.37zM985.72 253.37L1029.02 278.37L1029.02 328.37L985.72 353.37L942.41 328.37L942.41 278.37zM1029.02 328.37L1072.32 353.37L1072.32 403.37L1029.02 428.37L985.72 403.37L985.72 353.37zM1072.32 103.37L1115.62 128.37L1115.62 178.37L1072.32 203.37L1029.02 178.37L1029.02 128.37zM1115.62 478.37L1158.92 503.37L1158.92 553.37L1115.62 578.37L1072.32 553.37L1072.32 503.37zM1158.92 -46.63L1202.23 -21.63L1202.23 28.37L1158.92 53.37L1115.62 28.37L1115.62 -21.63zM1202.23 178.37L1245.53 203.37L1245.53 253.37L1202.23 278.37L1158.92 253.37L1158.92 203.37zM1202.23 478.37L1245.53 503.37L1245.53 553.37L1202.23 578.37L1158.92 553.37L1158.92 503.37zM1245.53 253.37L1288.83 278.37L1288.83 328.37L1245.53 353.37L1202.23 328.37L1202.23 278.37zM1288.83 328.37L1332.13 353.37L1332.13 403.37L1288.83 428.37L1245.53 403.37L1245.53 353.37zM1245.53 403.37L1288.83 428.37L1288.83 478.37L1245.53 503.37L1202.23 478.37L1202.23 428.37zM1332.13 403.37L1375.44 428.37L1375.44 478.37L1332.13 503.37L1288.83 478.37L1288.83 428.37zM1418.74 -46.63L1462.04 -21.63L1462.04 28.37L1418.74 53.37L1375.44 28.37L1375.44 -21.63zM1462.04 28.37L1505.35 53.37L1505.35 103.37L1462.04 128.37L1418.74 103.37L1418.74 53.37z" stroke="rgba(6, 80, 156, 0.93)" stroke-width="2"></path></g><defs><mask id="SvgjsMask1217"><rect width="1440" height="560" fill="#ffffff"></rect></mask></defs></svg>